<?xml version="1.0" encoding="UTF-8"?><svg id="Layer_2" xmlns="http://www.w3.org/2000/svg" viewBox="0 0 331.02 107.77"><defs><style>.cls-1{fill:#043673;}.cls-2{fill:#fff;}.cls-3{fill:#fdb913;}</style></defs><g id="Program"><g><rect class="cls-3" x="144.52" y=".06" width="1.13" height="106.85"/><g><path class="cls-1" d="m17.31,71.64c0-1.95-.14-2.47-1.46-2.57l-.92-.06c-.15-.12-.11-.65.03-.66,1.58-.14,3.57-.21,6.29-.21,1.84,0,3.6.13,4.92.74,1.26.55,2.23,1.61,2.23,3.29,0,1.9-1.23,2.88-2.99,3.62,0,.26.23.34.56.39,1.58.27,3.92,1.58,3.92,4.4,0,3.06-2.52,5.12-7.79,5.12-.85,0-2.28-.08-3.51-.08s-2.28.05-3.37.08c-.18-.08-.23-.5-.06-.66l.53-.08c1.55-.24,1.61-.53,1.61-3.3v-10.02Zm2.4,3.51c0,.74.03.79,1.52.74,2.99-.11,4.6-.9,4.6-3.38s-2.14-3.56-4.36-3.56c-.64,0-1.08.06-1.35.16-.29.08-.41.21-.41.69v5.35Zm0,6.12c0,.95.06,2.29.61,2.88.56.61,1.44.74,2.31.74,2.6,0,4.6-1.06,4.6-3.69,0-2.09-1.17-4.51-5.83-4.51-1.58,0-1.7.16-1.7.69v3.9Z"/><path class="cls-1" d="m50.25,74.24c0-2.39-.05-2.77-1.53-2.88l-.62-.05c-.15-.09-.1-.5.05-.56,1.25.04,2.1.07,3.15.07s1.85-.02,3.1-.07c.15.07.2.47.05.56l-.63.05c-1.48.11-1.52.49-1.52,2.88v8.02c0,2.39.05,2.71,1.52,2.86l.63.07c.15.09.1.49-.05.56-1.25-.04-2.1-.07-3.1-.07s-1.9.02-3.15.07c-.15-.07-.2-.43-.05-.56l.62-.07c1.48-.16,1.53-.48,1.53-2.86v-8.02Z"/><path class="cls-1" d="m64.12,82.3c0,2.37.05,2.7,1.41,2.82l.75.07c.14.09.09.49-.05.56-1.34-.04-2.13-.07-3.07-.07s-1.76.02-3.26.07c-.14-.07-.19-.45,0-.56l.84-.07c1.34-.12,1.45-.45,1.45-2.82v-10.07c0-.7,0-.72-.7-.72h-1.29c-1.01,0-2.29.04-2.88.56-.56.49-.79.99-1.05,1.55-.19.14-.52.02-.61-.16.38-1.01.73-2.45.89-3.36.07-.04.38-.07.45,0,.14.72.91.7,1.99.7h9.49c1.27,0,1.48-.05,1.83-.63.12-.04.38-.02.42.07-.26.92-.42,2.75-.35,3.42-.09.18-.49.18-.61.05-.07-.56-.23-1.4-.59-1.64-.54-.39-1.43-.56-2.72-.56h-1.66c-.7,0-.68.02-.68.77v10.02Z"/><path class="cls-1" d="m74.16,74.24c0-2.39-.05-2.77-1.52-2.88l-.63-.05c-.15-.09-.1-.5.05-.56,1.25.04,2.1.07,3.15.07s1.85-.02,3.1-.07c.15.07.2.47.05.56l-.63.05c-1.48.11-1.52.49-1.52,2.88v8.02c0,2.39.05,2.71,1.52,2.86l.63.07c.15.09.1.49-.05.56-1.25-.04-2.1-.07-3.1-.07-1.05,0-1.9.02-3.15.07-.15-.07-.2-.43-.05-.56l.63-.07c1.48-.16,1.52-.48,1.52-2.86v-8.02Z"/><path class="cls-1" d="m85.37,85.98c-2.23,0-3.64-.58-4.15-.83-.32-.5-.67-2.09-.72-3.15.13-.16.53-.2.64-.07.4,1.15,1.49,3.36,4.57,3.36,2.23,0,3.32-1.24,3.32-2.59,0-.99-.24-2.1-2.18-3.15l-2.53-1.4c-1.33-.74-2.87-2.03-2.87-3.87,0-2.14,1.97-3.88,5.42-3.88.82,0,1.78.14,2.47.29.35.09.72.13.93.13.24.54.48,1.8.48,2.75-.11.13-.53.2-.66.07-.35-1.08-1.06-2.54-3.61-2.54s-3.16,1.46-3.16,2.5c0,1.31,1.27,2.25,2.26,2.77l2.13,1.13c1.68.88,3.32,2.18,3.32,4.32,0,2.48-2.21,4.17-5.66,4.17Z"/><path class="cls-1" d="m98.75,78.41c-1.16,0-1.21.04-1.21.72v3.18c0,2.37.12,2.68,1.48,2.82l.7.07c.14.09.1.49-.05.56-1.31-.04-2.13-.07-3.08-.07-1.04,0-1.87.05-2.81.07-.15-.07-.19-.43-.05-.56l.41-.07c1.36-.23,1.41-.45,1.41-2.82v-8.11c0-2.37-.17-2.75-1.43-2.84l-.63-.05c-.15-.09-.1-.5.05-.56,1.19.02,2.01.07,3.05.07.94,0,1.77-.02,2.81-.07.14.07.19.47.05.56l-.46.05c-1.41.13-1.46.47-1.46,2.84v2.59c0,.7.05.72,1.21.72h6.93c1.16,0,1.21-.02,1.21-.72v-2.59c0-2.37-.05-2.7-1.48-2.84l-.46-.05c-.14-.09-.1-.5.05-.56,1.12.04,1.94.07,2.93.07s1.77-.02,2.86-.07c.15.07.19.47.05.56l-.51.05c-1.41.13-1.45.47-1.45,2.84v8.11c0,2.37.05,2.66,1.45,2.82l.58.07c.14.09.1.49-.05.56-1.16-.04-1.99-.07-2.93-.07-.99,0-1.87.02-2.93.07-.15-.07-.19-.43-.05-.56l.46-.07c1.48-.23,1.48-.45,1.48-2.82v-3.18c0-.68-.05-.72-1.21-.72h-6.93Z"/><path class="cls-1" d="m3.44,90.7c1.99-1.55,4.53-2.31,7.37-2.31,1.47,0,3.55.3,4.83.65.33.08.52.14.76.11.03.63.16,2.34.38,4-.14.19-.55.22-.74.05-.41-1.85-1.64-3.97-5.6-3.97-4.18,0-7.72,2.64-7.72,8.27s3.63,8.87,8.11,8.87c3.52,0,5.08-2.28,5.7-3.89.19-.14.6-.08.71.11-.19,1.42-.9,3.21-1.31,3.73-.33.05-.66.16-.96.27-.6.22-2.57.62-4.31.62-2.46,0-4.8-.49-6.8-1.82-2.18-1.49-3.88-3.97-3.88-7.48,0-3.02,1.37-5.6,3.44-7.21Z"/><path class="cls-1" d="m18.37,99.5c0-4.5,3.55-7.95,8.42-7.95,5.46,0,8.21,3.76,8.21,7.73,0,4.55-3.64,7.86-8.21,7.86-5.25,0-8.42-3.58-8.42-7.64Zm14.26.47c0-3.72-1.73-7.73-6.25-7.73-2.46,0-5.65,1.6-5.65,6.53,0,3.33,1.7,7.66,6.36,7.66,2.84,0,5.54-2.03,5.54-6.47Z"/><path class="cls-1" d="m61.68,97.56c0-1.4-.05-3.99-.46-4.66-.17-.27-.6-.43-1.19-.47l-.6-.04c-.14-.16-.1-.45.05-.54.91.04,1.79.07,2.72.07,1,0,1.65-.02,2.51-.07.19.11.17.4.05.54l-.57.04c-.6.04-1.05.25-1.19.54-.34.74-.34,3.33-.34,4.59v2.55c0,1.96-.33,4.03-1.67,5.38-1.03,1.06-2.79,1.64-4.56,1.64-1.65,0-3.3-.29-4.47-1.24-1.27-.99-1.86-2.63-1.86-5.31v-5.32c0-2.34-.05-2.73-1.43-2.84l-.6-.04c-.14-.09-.1-.47.05-.54,1.2.04,2.01.07,2.96.07s1.77-.02,2.94-.07c.14.07.19.45.05.54l-.57.04c-1.39.11-1.43.5-1.43,2.84v4.87c0,3.62,1.2,6.01,4.85,6.01,3.46,0,4.78-2.57,4.78-5.99v-2.59Z"/><path class="cls-1" d="m89.44,94.75c0-1.68-.11-2.12-1.29-2.21l-.85-.08c-.1-.09-.15-.54.03-.56,1.43-.11,3.22-.18,5.67-.18,1.66,0,3.25.11,4.43.64,1.14.48,2.01,1.39,2.01,2.85,0,1.64-1.11,2.48-2.69,3.12,0,.23.21.3.5.34,1.43.23,3.54,1.37,3.54,3.8,0,2.64-2.27,4.41-7.02,4.41-.77,0-2.06-.07-3.17-.07s-2.06.05-3.04.07c-.16-.07-.21-.43-.05-.57l.48-.07c1.4-.21,1.45-.46,1.45-2.84v-8.65Zm2.16,3.03c0,.64.03.68,1.37.64,2.69-.09,4.14-.77,4.14-2.91s-1.93-3.07-3.93-3.07c-.58,0-.98.05-1.21.14-.26.07-.37.18-.37.59v4.62Zm0,5.28c0,.82.05,1.98.55,2.48.5.52,1.29.64,2.09.64,2.35,0,4.14-.91,4.14-3.19,0-1.8-1.06-3.89-5.25-3.89-1.42,0-1.53.14-1.53.59v3.37Z"/><path class="cls-1" d="m46.43,85.19l-.63-.05c-.13-.01-.24-.03-.34-.05-.92-.16-1.28-.98-1.71-1.73l-2.16-3.77c-.37-.63-.77-1.47-1.63-1.59,2.22-.27,4.22-1.54,4.22-3.74,0-2.54-2.51-3.67-5.05-3.67-1.52,0-2.91.04-4.46.04-.85,0-1.87-.04-2.72-.04-.47,0-.48.1-.48.36,0,.39.17.28.67.31,1.81.1,1.74.44,1.74,1.98v9.87c0,1.41.12,1.83-1.36,1.97,0,0-.23.02-.36.04l-.63.06c-.15.13-.1.5.05.56.33-.01.93-.04.93-.04.82-.02,1.64-.09,2.46-.09s1.62.06,2.43.09h0c.29,0,.59.02.93.03.15-.07.2-.43.05-.56l-.63-.06c-.13-.02-.35-.03-.35-.03-1.5-.1-1.41-.52-1.41-1.97v-3.72c0-.22-.03-.8.13-.97.13-.14.37-.12.59-.12,2.03,0,2,.2,2.96,1.88l2.62,4.71c.21.36.37.82.91.82h2.27c.29,0,.59.02.92.03.15-.07.2-.43.05-.56Zm-9.11-7.4c-.45,0-1.36.17-1.36-.43v-4.32c0-1.69.05-1.93,2.08-1.93,2.38,0,3.84,1.21,3.84,3.43,0,.97-.35,1.86-1.23,2.46-1.01.7-2.11.8-3.34.8Z"/><g><path class="cls-1" d="m37.8,95.34c0-2.36-.05-2.72-1.61-2.84l-.62-.04c-.15-.09-.1-.5.05-.56,1.39.05,2.23.07,3.22.07s1.81-.02,3.05-.07c.15.07.2.47.05.56l-.6.04c-1.46.11-1.51.47-1.51,2.84v7.84c0,1.42.07,2.01.52,2.43.27.25.74.52,2.7.52,2.11,0,2.63-.09,3.02-.29.5-.27,1.14-1.08,1.64-2.23.15-.11.62-.02.62.13,0,.25-.69,2.54-1.04,3.15-1.26-.05-3.62-.07-6.17-.07h-2.28c-1.04,0-1.83.02-3.22.07-.15-.07-.2-.43-.05-.56l.74-.07c1.44-.13,1.49-.45,1.49-2.81v-8.11Z"/><path class="cls-1" d="m104.19,95.38c0-2.39-.05-2.77-1.48-2.88l-.61-.04c-.15-.09-.1-.5.05-.56,1.22.05,2.04.07,3.07.07s1.8-.02,3.02-.07c.15.07.19.47.05.56l-.61.04c-1.44.11-1.48.5-1.48,2.88v8.02c0,2.39.05,2.7,1.48,2.86l.61.07c.15.09.1.49-.05.56-1.22-.05-2.04-.07-3.02-.07-1.02,0-1.85.02-3.07.07-.15-.07-.19-.43-.05-.56l.61-.07c1.43-.16,1.48-.47,1.48-2.86v-8.02Z"/><path class="cls-1" d="m84.75,106.26c-.12-.01-.36-.03-.36-.03-.26-.02-.49-.06-.67-.26-.32-.33-.29-1.29-.29-1.67v-9.87c0-.43-.11-1.36.21-1.7.16-.18.49-.21.78-.22h0c.18-.01.18-.01.34-.02l.62-.05c.15-.09.1-.5-.05-.56-.33.01-.64,0-.93.02h0s-2.66,0-2.66,0c-.29,0-.55,0-.71.31l-5.42,11.28-4.78-10.9c-.16-.38-.19-.69-.68-.69h-2.77c-.29,0-.61,0-.94-.02-.15.07-.2.47-.05.56l.63.05c.13,0,.36.03.36.03,1.04.07,1.1.3,1.01,1.39l-.81,10.59c-.07,1.06-.13,1.62-1.24,1.73,0,0-.24.03-.36.04l-.63.07c-.15.14-.1.5.05.57.33-.01.92-.03.92-.03.56-.03,1.14-.08,1.71-.08.62,0,1.24.06,1.86.08h0c.29,0,.59.02.93.03.15-.07.2-.43.05-.56l-.63-.07c-.16-.01-.35-.03-.35-.03-1.61-.11-1.57-1.24-1.47-2.63l.76-9.85h.18l5.18,12.12c.05.17.13.45.39.45.24,0,.32-.26.39-.43l5.84-12.43h.18v10.83c0,.43.05,1.31-.39,1.65-.23.17-.99.28-.99.28-.1.02-.21.03-.34.05l-.63.07c-.15.13-.1.49.05.56.33-.01.91-.03.91-.03.85-.02,1.71-.09,2.57-.09.62,0,1.83.06,1.83.06.29,0,.62.04.95.05.15-.07.2-.43.05-.56l-.63-.07Z"/><path class="cls-1" d="m125.38,106.32l-.08-.07c-.12-.01-.24-.03-.34-.04-.97-.22-1.35-1.39-1.71-2.23l-5.01-11.87c-.05-.14-.15-.45-.35-.45-.27,0-.35.33-.42.52l-4.79,11.84c-.17.45-.62,1.54-.94,1.87-.25.26-.57.3-.91.34,0,0-.27.03-.4.04l-.59.06c-.15.13-.1.49.05.56.33-.01.93-.04.93-.04.66,0,1.31-.09,1.97-.09.55,0,1.1.06,1.65.08,0,0,.59.02.93.03.15-.07.2-.43.05-.56l-.63-.07c-.12-.01-.34-.03-.34-.03-.58-.06-1.3-.17-1.3-.8,0-.43.2-.92.35-1.3l.74-1.77c.37-.85.22-.95,1.22-.95h3.38c1.19,0,1.02,0,1.54,1.21l.79,1.8c.12.31.35.83.35,1.16,0,.59-.65.63-1.25.68,0,0-.2.02-.38.03l-.6.04c-.15.13-.1.49.05.56.33-.01.93-.04.93-.04.71-.03,1.42-.08,2.1-.08.87,0,1.74.06,2.61.08h0c.28,0,.04.02.38.03.15-.07.2-.43.05-.56Zm-6.57-5.58h-2.93c-.1,0-.92.1-.92-.14,0-.07.05-.21.08-.28l1.76-4.35c.05-.12.23-.72.43-.72.15,0,.35.62.41.72l1.73,4.06s.18.43.18.53c0,.26-.59.19-.74.19Z"/></g></g><g><path class="cls-3" d="m168.73,76.44c0-4.25-.23-5.34-2.81-5.57l-1.84-.17c-.46-.34-.4-1.21.06-1.43,3.1-.29,7-.46,12.34-.46,3.61,0,7.06.29,9.64,1.61,2.47,1.21,4.36,3.5,4.36,7.17,0,4.13-2.41,6.25-5.85,7.86,0,.57.46.75,1.09.86,3.1.57,7.69,3.44,7.69,9.58,0,6.66-4.93,11.13-15.26,11.13-1.66,0-4.48-.17-6.88-.17s-4.48.11-6.6.17c-.34-.17-.46-1.09-.11-1.43l1.03-.17c3.04-.52,3.16-1.15,3.16-7.17v-21.8Zm4.7,7.63c0,1.61.06,1.72,2.98,1.61,5.85-.23,9.01-1.95,9.01-7.34s-4.19-7.75-8.55-7.75c-1.26,0-2.12.11-2.64.34-.57.17-.8.46-.8,1.49v11.65Zm0,13.31c0,2.07.11,4.99,1.21,6.25,1.09,1.32,2.81,1.61,4.53,1.61,5.11,0,9.01-2.29,9.01-8.03,0-4.53-2.29-9.81-11.42-9.81-3.1,0-3.33.34-3.33,1.49v8.49Z"/><path class="cls-3" d="m204.7,72.94c4.19-3.27,9.52-4.88,15.49-4.88,3.1,0,7.46.63,10.16,1.38.69.17,1.09.29,1.61.23.06,1.32.34,4.93.8,8.43-.29.4-1.15.46-1.55.11-.86-3.9-3.44-8.38-11.76-8.38-8.78,0-16.24,5.56-16.24,17.44s7.63,18.7,17.04,18.7c7.4,0,10.67-4.82,11.99-8.2.4-.29,1.26-.17,1.49.23-.4,2.98-1.89,6.77-2.75,7.86-.69.11-1.38.34-2.01.57-1.26.46-5.39,1.32-9.07,1.32-5.16,0-10.1-1.03-14.29-3.84-4.59-3.16-8.15-8.38-8.15-15.78,0-6.37,2.87-11.82,7.23-15.2Z"/><path class="cls-1" d="m246.57,107.77c-4.82,0-7.86-1.49-8.95-2.12-.69-1.26-1.43-5.34-1.55-8.03.29-.4,1.15-.52,1.38-.17.86,2.93,3.21,8.55,9.87,8.55,4.82,0,7.17-3.16,7.17-6.6,0-2.52-.52-5.34-4.7-8.03l-5.45-3.56c-2.87-1.89-6.2-5.16-6.2-9.87,0-5.45,4.25-9.87,11.7-9.87,1.78,0,3.84.34,5.34.75.75.23,1.55.34,2.01.34.52,1.38,1.03,4.59,1.03,7-.23.34-1.15.52-1.43.17-.75-2.75-2.29-6.48-7.8-6.48s-6.83,3.73-6.83,6.37c0,3.33,2.75,5.74,4.88,7.06l4.59,2.87c3.61,2.24,7.17,5.56,7.17,11.02,0,6.31-4.76,10.61-12.22,10.61Z"/><path class="cls-1" d="m269.58,86.66c-.98,0-1.03.17-1.03,1.38v10.73c0,3.33.4,6.37,4.19,6.37.57,0,1.09-.11,1.55-.29.52-.17,1.26-.8,1.43-.8.46,0,.69.63.57.98-1.03,1.2-3.1,2.64-6.02,2.64-4.93,0-5.97-2.75-5.97-6.2v-13.14c0-1.55-.06-1.66-1.21-1.66h-1.61c-.34-.23-.4-.86-.17-1.2,1.66-.52,3.1-1.26,3.67-1.78.75-.69,1.84-2.24,2.41-3.39.29-.11.97-.11,1.2.29v2.58c0,1.03.06,1.09,1.03,1.09h6.37c.69.52.57,2.07.06,2.41h-6.48Z"/><path class="cls-1" d="m289.31,94.98c.86-.29.97-.8.97-1.66l.06-2.64c.06-2.12-.63-4.99-4.19-4.99-1.61,0-3.56.8-3.67,2.58-.06.92-.11,1.61-.57,1.95-.86.69-2.41,1.09-3.27,1.09-.52,0-.8-.29-.8-.8,0-2.98,6.48-7.06,10.67-7.06s6.14,2.41,5.97,6.71l-.34,9.98c-.12,2.64.4,4.99,2.64,4.99.57,0,1.09-.17,1.43-.34.29-.17.57-.4.75-.4.23,0,.4.34.4.75,0,.29-2.01,2.52-4.82,2.52-1.38,0-2.75-.52-3.73-1.78-.23-.34-.57-.8-.92-.8-.4,0-1.09.52-2.24,1.15-1.26.69-2.52,1.43-4.13,1.43s-3.04-.46-4.02-1.32c-1.09-.98-1.78-2.41-1.78-4.02,0-2.24,1.09-3.56,4.76-4.88l6.83-2.47Zm-3.56,10.1c1.15,0,2.93-.86,3.5-1.43.69-.69.69-1.49.75-2.7l.11-3.38c0-.63-.23-.75-.57-.75s-1.32.23-2.35.57c-3.38,1.15-5.05,2.01-5.05,4.25,0,.98.69,3.44,3.61,3.44Z"/><path class="cls-1" d="m308.07,86.66c-.98,0-1.03.17-1.03,1.38v10.73c0,3.33.4,6.37,4.19,6.37.57,0,1.09-.11,1.55-.29.52-.17,1.26-.8,1.43-.8.46,0,.69.63.57.98-1.03,1.2-3.1,2.64-6.02,2.64-4.93,0-5.97-2.75-5.97-6.2v-13.14c0-1.55-.06-1.66-1.2-1.66h-1.61c-.34-.23-.4-.86-.17-1.2,1.66-.52,3.1-1.26,3.67-1.78.75-.69,1.84-2.24,2.41-3.39.29-.11.98-.11,1.21.29v2.58c0,1.03.06,1.09,1.03,1.09h6.37c.69.52.57,2.07.06,2.41h-6.48Z"/><path class="cls-1" d="m329.93,84.48c.52,1.26.92,3.1.92,4.65-.23.4-1.09.52-1.38.17-.97-2.52-2.7-4.19-5.05-4.19s-3.67,1.43-3.67,3.5c0,2.35,2.41,3.61,4.42,4.76,3.04,1.72,5.85,3.67,5.85,7.75,0,4.36-4.02,6.54-8.26,6.54-2.7,0-4.71-.57-6.14-1.72-.46-1.09-.8-3.9-.69-5.79.29-.34,1.03-.4,1.32-.06.98,3.16,2.81,5.91,6.08,5.91,2.07,0,3.84-1.2,3.84-3.67,0-2.64-2.29-4.07-4.42-5.28-3.33-1.89-5.68-3.9-5.68-7.06,0-4.19,3.44-6.54,7.8-6.54,2.41,0,4.53.57,5.05,1.03Z"/></g><g><path class="cls-2" d="m27.67,55.12c15.78,0,37.62,8.89,53.46,8.89,11.31,0,22.34-3.02,28.62-7.46.44-2.61.67-5.29.67-8.02C110.41,22,88.91.5,62.38.5S14.35,22,14.35,48.53c0,2.7.23,5.35.66,7.93,1.73-.32,7.62-1.34,12.66-1.34Z"/><g><polygon class="cls-3" points="93.41 37.42 95.31 38.21 99.52 35.27 93.41 37.42"/><path class="cls-3" d="m22.64,34.14l-4.99-1.76.25-.61,5.62,1.88h.02s.74-.43.74-.43l.3-.19-6.13-2.61.26-.64,13.68,5.53.45-.19-13.57-6.61.3-.62,14.38,6.69.2-.1-13.94-7.91.29-.59,20.14,10.96c.17-.31.51-.86.69-1.16-7.66-7.2-15.04-12.6-15.04-12.6,0,0,7.6,5.09,16.97,9.82.31-.39.56-.7.89-1.06l-17.18-15.12.46-.47,13.87,11.82-12.85-12.86.48-.5,14.42,13.94-13.42-14.9.51-.46,12.41,13.29-11.32-14.27.49-.44,14.52,17.67c.37-.32.69-.57,1.08-.87-4.39-9.5-9.19-17.23-9.19-17.23,0,0,5.1,7.51,11.99,15.38.42-.24.85-.46,1.28-.68l-.07-.05-10.17-20.3.61-.27,8.43,16.15-7.09-16.74.63-.28,8.15,18.33-6.87-18.84.65-.24,6.53,16.97-5.15-17.47.62-.23,6.79,21.67v.06s0,0,0,0c.45-.15.91-.29,1.37-.41-.52-10.41-2.06-19.31-2.06-19.31,0,0,1.91,8.83,5.32,18.67.48-.06.96-.11,1.44-.14l-.02-.02h.06l-.03-.05-1.83-22.64.66-.02,1.76,18.13-.3-18.18.69-.02.69,20.04.69-20.04.69.02-.3,18.18,1.76-18.13.66.02-1.83,22.64-.03.05h0,0s.03,0,.03,0c.47.03.94.08,1.41.13,3.41-9.83,5.32-18.64,5.32-18.64,0,0-1.53,8.88-2.05,19.27.47.12.93.26,1.38.41l6.76-21.6.62.23-5.16,17.47,6.53-16.97.65.24-6.87,18.84,8.15-18.33.63.28-7.09,16.74,8.43-16.15.6.27-10.14,20.23h.02c.42.21.83.43,1.23.65,6.86-7.84,11.93-15.31,11.93-15.31,0,0-4.76,7.68-9.14,17.13.39.3.77.6,1.15.92l14.35-17.47.49.44-11.33,14.27,12.41-13.29.51.46-13.43,14.9,14.42-13.94.48.5-12.85,12.86,13.87-11.82.46.47-16.97,14.95h0c.3.34.58.68.86,1.03,9.32-4.71,16.85-9.75,16.85-9.75,0,0-7.32,5.35-14.93,12.5.21.35.55.94.74,1.3l19.85-10.81.29.6-15.85,8.99,16.48-7.67.3.62-15.35,7.48.3.1,15.62-6.32.26.64-14.52,6.18.27.11,9.68-3.23,1.46-1.02.48.37,3.18-1.06.25.61-2.75.97,3.98,3.04,1.28.71C104.58,15.9,85.34,0,62.38,0S19.51,16.47,14.81,38.42c.06-.03.12-.06.18-.09l.58-.26.36-.17,6.71-3.76Z"/></g><path class="cls-1" d="m14.53,57.5s7.18-1.43,13.17-1.43c15.78,0,37.62,8.89,53.46,8.89,11.62,0,22.96-3.19,29.13-7.84.48-2.75.74-5.58.74-8.47,0-3.91-.46-7.71-1.34-11.36l-6.61-3.68-7.75,5.44-5.21-2.03c-1.76.89-12.65,8.17-12.65,8.17l-4.18-3.02-4.48-.89-5.98-4.35-6.86,4.71s-7.65,4.44-7.91,4.44-9.23-7.11-9.23-7.11l-4.13-4.35c-.7.44-3.51,1.73-3.51,1.73l-.15.04-2.72-.84-3.3-1.75-10.03,4.55c-.06.03-.12.06-.18.09-.71,3.3-1.08,6.72-1.08,10.23,0,3.02.28,5.98.81,8.85Z"/></g></g></g></svg>